<svg width="422" height="364" viewBox="0 0 422 364" fill="none" xmlns="http://www.w3.org/2000/svg">
<path d="M66.2883 330.872V236.22L132.066 204.039L197.844 236.22V251.364C279.833 251.364 407.792 252.311 407.792 252.311V330.872H197.844L132.066 364L66.2883 330.872Z" fill="#FFD600"/>
<path d="M197.844 251.365V156.713L132.066 124.531L66.2883 156.713V251.365L132.066 284.493L197.844 251.365Z" fill="#FFD600"/>
<path d="M0.510742 190.787V96.1356L199.646 0.537354L264.522 31.7724V125.478L199.646 157.841L133.418 190.878L67.1895 223.915L0.510742 190.787Z" fill="#FFD600"/>
<path d="M250.624 293.911H231.757V305.771H254.042V315H219.76V265.234H254.11V274.497H231.757V284.99H250.624V293.911ZM320.672 308.848C318.826 310.898 316.126 312.55 312.571 313.804C309.017 315.057 305.12 315.684 300.882 315.684C294.365 315.684 289.158 313.69 285.262 309.702C281.365 305.715 279.28 300.166 279.007 293.057L278.973 288.75C278.973 283.851 279.839 279.578 281.57 275.933C283.302 272.264 285.774 269.45 288.987 267.49C292.223 265.508 295.96 264.517 300.198 264.517C306.396 264.517 311.204 265.941 314.622 268.789C318.063 271.615 320.068 275.841 320.638 281.47H309.085C308.675 278.69 307.786 276.707 306.419 275.522C305.052 274.338 303.115 273.745 300.608 273.745C297.601 273.745 295.276 275.021 293.636 277.573C291.995 280.125 291.163 283.771 291.141 288.511V291.519C291.141 296.486 291.984 300.223 293.67 302.729C295.379 305.213 298.056 306.455 301.702 306.455C304.824 306.455 307.148 305.76 308.675 304.37V296.646H300.335V288.408H320.672V308.848ZM390.241 315H378.312V294.219H360.642V315H348.645V265.234H360.642V284.99H378.312V265.234H390.241V315Z" fill="white"/>
<path d="M178.331 331.872L164.169 339.391V294.279L148.285 302.61V289.225L191.536 267.455V280.461L178.331 287.573V331.872Z" fill="white"/>
</svg>
