<svg width="422" height="364" viewBox="0 0 422 364" fill="none" xmlns="http://www.w3.org/2000/svg">
<path d="M66.2883 330.335V235.683L132.066 203.501L197.844 235.683V250.827C279.833 250.827 407.792 251.774 407.792 251.774V330.335H197.844L132.066 363.463L66.2883 330.335Z" fill="#05CB0D"/>
<path d="M197.844 250.827V156.175L132.066 123.994L66.2883 156.175V250.827L132.066 283.955L197.844 250.827Z" fill="#05CB0D"/>
<path d="M250.624 293.911H231.757V305.771H254.042V315H219.76V265.234H254.11V274.497H231.757V284.99H250.624V293.911ZM320.672 308.848C318.826 310.898 316.126 312.55 312.571 313.804C309.017 315.057 305.12 315.684 300.882 315.684C294.365 315.684 289.158 313.69 285.262 309.702C281.365 305.715 279.28 300.166 279.007 293.057L278.973 288.75C278.973 283.851 279.839 279.578 281.57 275.933C283.302 272.264 285.774 269.45 288.987 267.49C292.223 265.508 295.96 264.517 300.198 264.517C306.396 264.517 311.204 265.941 314.622 268.789C318.063 271.615 320.068 275.841 320.638 281.47H309.085C308.675 278.69 307.786 276.707 306.419 275.522C305.052 274.338 303.115 273.745 300.608 273.745C297.601 273.745 295.276 275.021 293.636 277.573C291.995 280.125 291.163 283.771 291.141 288.511V291.519C291.141 296.486 291.984 300.223 293.67 302.729C295.379 305.213 298.056 306.455 301.702 306.455C304.824 306.455 307.148 305.76 308.675 304.37V296.646H300.335V288.408H320.672V308.848ZM390.241 315H378.312V294.219H360.642V315H348.645V265.234H360.642V284.99H378.312V265.234H390.241V315Z" fill="white"/>
<path d="M0.510742 190.25V95.5983L199.646 0L264.522 31.2351V124.94L199.646 157.303L133.418 190.341L67.1895 223.378L0.510742 190.25Z" fill="#05CB0D"/>
<path d="M178.331 331.335L164.169 338.853V293.741L148.285 302.073V288.688L191.536 266.918V279.923L178.331 287.035V331.335Z" fill="white"/>
</svg>
