<svg width="94" height="98" viewBox="0 0 94 98" fill="none" xmlns="http://www.w3.org/2000/svg">
<path d="M10.5 22L47 5M10.5 22V71.5M10.5 22L83 71.5M47 5L83 22M47 5V38M83 22V71.5M83 22L10.5 71.5M83 71.5L47 89.5M47 89.5L10.5 71.5M47 89.5V38M47 38V54.5" stroke="white" stroke-width="3"/>
<circle cx="11" cy="23" r="9.5" fill="#00C408" stroke="white" stroke-width="3"/>
<circle cx="46.5" cy="47.5" r="5" fill="#00C408" stroke="white" stroke-width="3"/>
<circle cx="46.5" cy="6.5" r="5" fill="#00C408" stroke="white" stroke-width="3"/>
<circle cx="10.5" cy="71.5" r="5" fill="#00C408" stroke="white" stroke-width="3"/>
<circle cx="82.5" cy="22.5" r="5" fill="#00C408" stroke="white" stroke-width="3"/>
<circle cx="83" cy="68" r="9.5" fill="#00C408" stroke="white" stroke-width="3"/>
<circle cx="47" cy="87" r="9.5" fill="#00C408" stroke="white" stroke-width="3"/>
</svg>
