<svg width="111" height="106" viewBox="0 0 111 106" fill="none" xmlns="http://www.w3.org/2000/svg">
<circle cx="50" cy="50" r="47.5" fill="#00C408" stroke="white" stroke-width="5"/>
<rect x="29" y="24" width="6" height="24" fill="white"/>
<rect x="65" y="24" width="6" height="24" fill="white"/>
<path d="M70 65C70 74.3888 60.8218 82 49.5 82C38.1782 82 29 74.3888 29 65" stroke="white" stroke-width="5"/>
<path d="M75.0042 62C67.8222 62 62 68.0801 62 75.5802C62 79.7107 63.7658 83.4105 66.5521 85.9012L86.3829 106L106.474 85.9012C109.245 83.4108 111 79.7214 111 75.604C111 68.1039 105.178 62.0238 97.9958 62.0238C93.0166 62.0238 88.6911 64.946 86.506 69.2378C84.3249 64.9331 79.9925 62 75.0042 62Z" fill="white"/>
</svg>
