<?xml version="1.0" encoding="UTF-8"?>
<svg width="140px" height="162px" viewBox="0 0 140 162" version="1.1" xmlns="http://www.w3.org/2000/svg" xmlns:xlink="http://www.w3.org/1999/xlink">
    <!-- Generator: Sketch 53.2 (72643) - https://sketchapp.com -->
    <title>VideoIcon</title>
    <desc>Created with Sketch.</desc>
    <g id="Welcome" stroke="none" stroke-width="1" fill="none" fill-rule="evenodd">
        <g id="TeghBeaker" transform="translate(-648.000000, -1962.000000)">
            <g id="Features" transform="translate(152.000000, 1296.000000)">
                <g id="LiveVideo" transform="translate(404.000000, 666.000000)">
                    <g id="VideoIcon" transform="translate(92.000000, 0.000000)">
                        <polygon id="GreenIconBG-Copy-3" fill="#05CB0D" fill-rule="nonzero" points="140 128.453419 140 32.5972514 69.9992305 0 0 32.5926355 0 128.448803 69.9992305 162"></polygon>
                        <path d="M36.1510791,51 L70.6115108,51 C78.895782,51 85.6115108,57.7157288 85.6115108,66 L85.6115108,97 C85.6115108,105.284271 78.895782,112 70.6115108,112 L36.1510791,112 C27.8668079,112 21.1510791,105.284271 21.1510791,97 L21.1510791,66 C21.1510791,57.7157288 27.8668079,51 36.1510791,51 Z M98.776922,64.1808374 L105.755396,59.8741068 C110.100559,57.1925108 115.796873,58.5410985 118.478469,62.8862618 C119.379124,64.3456514 119.856115,66.0267873 119.856115,67.741721 L119.856115,93.7757083 C119.856115,99.0675167 115.566257,103.357375 110.274448,103.357375 C108.697857,103.357375 107.145624,102.968338 105.755396,102.224762 L99.5801462,98.9218735 C94.7009269,96.3121789 91.6546763,91.2282572 91.6546763,85.6949682 L91.6546763,76.9456714 C91.6546763,71.7435723 94.3499932,66.9128946 98.776922,64.1808374 Z" id="Combined-Shape" fill="#FFFFFF"></path>
                    </g>
                </g>
            </g>
        </g>
    </g>
</svg>